# Blender 3.1.2
# www.blender.org
o HighRock_NewLowPoly
v -1.390649 4.363200 8.914215
v 1.411889 1.788501 8.165971
v 2.160540 5.119043 7.443092
v -8.740566 -0.611187 3.973932
v -7.979307 -2.673760 7.801322
v -8.550310 -0.427446 6.832035
v 0.358094 -4.765496 8.876599
v -1.914128 -5.200428 9.384158
v -0.291725 -9.274324 8.038309
v -3.163491 14.433482 6.352386
v -6.471542 13.641957 4.704215
v -5.634936 12.786912 7.866562
v -8.370090 6.967226 5.085376
v -8.355960 6.128580 1.970457
v -8.559280 3.978176 4.818839
v -4.823590 -10.361628 2.734036
v -2.796188 -10.722781 1.441419
v -1.677824 -11.494298 4.500755
v -1.790336 14.684672 4.169537
v -1.464628 12.012027 6.788988
v -0.603560 13.516600 3.019487
v -0.978316 -11.144769 7.076361
v -3.282714 -10.471938 7.939986
v 3.924384 -8.865010 6.069167
v 1.055121 -11.541018 4.899591
v 2.886766 -7.535927 3.525728
v -4.615445 5.412065 9.642486
v -5.373249 8.640219 9.466177
v -6.977375 0.057770 -3.919966
v -8.159142 0.188612 -1.074140
v -7.926139 2.755677 -0.597992
v -7.804811 -7.556065 -0.565075
v -5.806698 -6.241796 -3.599282
v -4.690588 -9.697934 -0.943427
v 3.707861 6.916163 3.656004
v 5.100588 5.347476 4.700069
v 3.379851 4.602492 2.280128
v -3.953728 -6.887612 10.098082
v -4.855588 -3.668856 10.845189
v -7.530927 -4.851336 9.011996
v -7.658589 -3.284065 -2.751594
v 4.857117 -5.053565 4.429341
v 4.427537 -1.982932 3.902209
v 4.666626 -4.795940 6.317643
v -6.105480 3.492968 10.394493
v -7.889357 5.225927 8.434366
v -2.928628 12.037875 -1.392094
v -1.666503 8.318621 -2.069029
v -4.203147 10.844628 -2.920737
v -8.792686 -2.080335 1.591955
v 0.636270 -9.355579 2.062128
v -6.453534 -8.210178 8.916777
v -5.077930 1.993913 -4.659420
v -5.391359 6.034746 -3.726564
v -3.677057 4.982885 -3.670348
v 2.738505 -8.893107 7.593664
v 0.373611 -1.275206 8.934795
v -2.811968 -0.797587 10.060883
v 1.435673 11.201262 4.627498
v 2.950452 8.405302 5.614499
v -8.295175 1.722363 7.755651
v -6.326876 -0.579535 10.556720
v 1.604487 -10.203467 7.531343
v -7.236795 11.346833 2.071354
v -7.397713 10.907322 -0.838371
v -6.435805 9.171831 -2.406811
v -8.436985 -6.194276 1.138434
v 3.067155 -0.408111 7.434133
v 4.965116 2.265921 3.505993
v 5.242194 -1.830042 5.454314
v -2.871098 -7.009377 -1.233270
v -1.342408 -7.922285 0.675157
v 0.740329 7.640624 7.755671
v 4.593748 2.347779 6.156985
v -8.893754 0.825099 1.094768
v 0.334399 -0.567376 0.999579
v 3.454401 -4.033792 3.036152
v 0.909071 6.101045 0.020485
v 1.824077 -5.671402 2.921299
v -0.122763 10.917862 7.065394
v -2.331299 8.853482 8.413610
v -7.732280 9.775391 6.950002
v -1.127325 12.466635 -0.337695
v -2.485746 1.268806 9.686766
v -8.187881 -3.883456 2.736953
v -1.015591 -2.726688 0.278648
v -0.313944 -0.677171 0.139270
v -3.186879 13.965384 0.230358
v -6.020867 13.717371 -0.610836
v -2.612560 2.566731 -2.181086
v -7.418000 6.968350 -1.307953
v -5.283373 14.690179 2.081302
v -7.265038 5.181836 -2.687840
v -5.854187 -1.736489 -4.692342
v -7.869865 -6.184361 5.608114
v -5.618101 -9.490538 4.775497
v 0.494112 2.674743 0.299350
v -3.406157 -1.189309 -2.577606
v -4.336231 -4.598029 -3.337076
v 4.108655 -3.217302 7.018415
v 2.073224 9.365779 2.492803
v 0.765116 8.754884 -0.352508
vn 0.3100 0.1300 0.9418
vn 0.4178 0.0995 0.9031
vn 0.5933 0.2281 0.7720
vn -0.9941 -0.0754 0.0785
vn -0.9587 -0.0753 0.2743
vn -0.9522 -0.0606 0.2993
vn 0.3404 -0.0742 0.9374
vn 0.3415 -0.0988 0.9347
vn 0.1974 -0.3174 0.9275
vn 0.0515 0.8785 0.4750
vn -0.7262 0.6696 0.1557
vn -0.1961 0.5396 0.8188
vn -0.9900 0.1321 0.0505
vn -0.9787 0.1364 -0.1532
vn -0.9952 0.0575 0.0791
vn -0.4695 -0.8821 -0.0383
vn 0.1732 -0.8407 -0.5131
vn -0.0757 -0.9892 -0.1259
vn 0.4746 0.8755 0.0908
vn 0.4899 0.5199 0.6998
vn 0.6649 0.7454 0.0485
vn 0.0415 -0.8378 0.5445
vn -0.2389 -0.8261 0.5103
vn 0.8591 -0.5053 0.0815
vn 0.4549 -0.8748 -0.1670
vn 0.6513 -0.2474 -0.7174
vn 0.0289 0.1992 0.9795
vn -0.1489 0.2072 0.9669
vn -0.7815 0.0677 -0.6202
vn -0.9404 0.0509 -0.3363
vn -0.9451 0.1046 -0.3097
vn -0.7865 -0.5669 -0.2451
vn -0.2760 -0.3052 -0.9114
vn 0.0603 -0.7732 -0.6313
vn 0.9007 0.4241 -0.0947
vn 0.9364 0.3482 0.0432
vn 0.6820 0.0436 -0.7300
vn 0.0132 -0.3071 0.9516
vn 0.0058 -0.1046 0.9945
vn -0.7540 -0.1783 0.6322
vn -0.7779 -0.1362 -0.6134
vn 0.8346 -0.1764 -0.5218
vn 0.7788 -0.0800 -0.6222
vn 0.9420 -0.1063 0.3183
vn -0.3224 0.1781 0.9297
vn -0.8026 0.1547 0.5761
vn 0.3368 0.5369 -0.7735
vn 0.5405 0.1641 -0.8252
vn -0.0082 0.3693 -0.9293
vn -0.9948 -0.0909 -0.0465
vn 0.4549 -0.5601 -0.6924
vn -0.6577 -0.5599 0.5039
vn 0.1378 0.0602 -0.9886
vn -0.3589 0.2274 -0.9053
vn 0.4759 0.0409 -0.8785
vn 0.5129 -0.2245 0.8286
vn 0.3731 0.0129 0.9277
vn 0.2919 0.0695 0.9539
vn 0.8043 0.5933 0.0330
vn 0.7982 0.3376 0.4989
vn -0.9320 0.0189 0.3620
vn -0.4994 0.0314 0.8658
vn 0.3740 -0.6411 0.6701
vn -0.9661 0.2481 -0.0719
vn -0.8655 0.1940 -0.4619
vn -0.8045 0.0900 -0.5871
vn -0.9705 -0.2291 -0.0750
vn 0.5562 0.0548 0.8292
vn 0.9268 -0.0136 -0.3752
vn 0.9673 -0.0293 0.2520
vn 0.6357 -0.2918 -0.7146
vn 0.5835 -0.2236 -0.7807
vn 0.4409 0.2240 0.8691
vn 0.7806 0.0762 0.6203
vn -0.9867 0.0541 -0.1530
vn 0.6269 -0.1594 -0.7626
vn 0.5348 -0.1633 -0.8291
vn 0.6916 -0.0466 -0.7208
vn 0.5135 -0.1474 -0.8453
vn 0.4917 0.5373 0.6853
vn 0.2713 0.2942 0.9164
vn -0.8931 0.2854 0.3478
vn 0.6261 0.5359 -0.5664
vn 0.2668 0.1176 0.9565
vn -0.9818 -0.1209 0.1467
vn 0.7109 -0.1514 -0.6868
vn 0.7124 -0.1854 -0.6768
vn 0.2743 0.8399 -0.4683
vn -0.3984 0.7440 -0.5365
vn 0.6653 -0.1128 -0.7380
vn -0.8963 0.1931 -0.3992
vn -0.3711 0.9254 -0.0765
vn -0.7661 0.1915 -0.6136
vn -0.0406 -0.1785 -0.9831
vn -0.9577 -0.2680 0.1045
vn -0.7194 -0.6879 0.0960
vn 0.6641 -0.1500 -0.7325
vn 0.6883 -0.1027 -0.7181
vn 0.4384 -0.1627 -0.8839
vn 0.6299 0.0221 0.7763
vn 0.8362 0.3327 -0.4359
vn 0.7402 0.1542 -0.6544
vt 0.435021 0.323934
vt 0.499417 0.271350
vt 0.515692 0.344651
vt 0.369781 0.667907
vt 0.774590 0.305307
vt 0.707918 0.358010
vt 0.728774 0.308024
vt 0.482888 0.129495
vt 0.435884 0.118763
vt 0.487272 0.036447
vt 0.256117 0.722878
vt 0.413287 0.547332
vt 0.331804 0.693821
vt 0.755796 0.993032
vt 0.712735 0.000000
vt 0.310423 0.760716
vt 0.653487 0.025198
vt 0.353677 0.507376
vt 0.743888 0.145334
vt 0.813334 0.855116
vt 0.768153 0.818310
vt 0.822671 0.791661
vt 0.754101 0.208872
vt 0.118048 0.656260
vt 0.169846 0.660516
vt 0.172786 0.003605
vt 0.153775 0.728960
vt 0.230199 0.673385
vt 0.462009 0.560000
vt 0.444103 0.494080
vt 0.498421 0.538933
vt 0.180945 0.527166
vt 0.210151 0.647169
vt 0.487986 0.000000
vt 0.130403 0.781811
vt 0.641529 0.521791
vt 0.434716 0.011637
vt 0.077693 0.766078
vt 0.586255 0.051414
vt 0.210151 0.823419
vt 0.004421 0.067119
vt 0.059836 0.000000
vt 0.193758 0.770936
vt 0.060574 0.091560
vt 0.619287 0.186615
vt 0.365496 0.344149
vt 0.630123 0.117626
vt 0.348029 0.413573
vt 0.678884 0.658623
vt 0.739577 0.677316
vt 0.734331 0.733479
vt 0.769851 0.521791
vt 0.094681 0.556413
vt 0.158309 0.527421
vt 0.304434 0.087985
vt 0.689125 0.532938
vt 0.163126 0.593354
vt 0.239669 0.018571
vt 0.582474 0.395713
vt 0.084690 0.401950
vt 0.599630 0.358571
vt 0.043305 0.373550
vt 0.103091 0.351469
vt 0.615782 0.450659
vt 0.393023 0.080633
vt 0.615083 0.384178
vt 0.362905 0.146709
vt 0.685288 0.407192
vt 0.718793 0.596146
vt 0.615083 0.138076
vt 0.022851 0.151377
vt 0.607770 0.205311
vt 0.045517 0.215158
vt 0.590691 0.137111
vt 0.000000 0.156324
vt 0.633315 0.230651
vt 0.332815 0.300886
vt 0.688358 0.190232
vt 0.271824 0.557344
vt 0.276542 0.487202
vt 0.255688 0.412461
vt 0.305015 0.527421
vt 0.615083 0.891189
vt 0.315368 0.457218
vt 0.812573 0.331152
vt 0.798022 0.646397
vt 0.210151 0.712923
vt 0.112494 0.044819
vt 0.673687 0.478090
vt 0.000000 0.738545
vt 0.329967 0.265700
vt 0.632723 0.696827
vt 0.332815 0.350640
vt 0.637268 0.785301
vt 0.301579 0.334297
vt 0.547770 0.045731
vt 0.476827 0.203607
vt 0.404661 0.210291
vt 0.522715 0.483885
vt 0.119184 0.485196
vt 0.073313 0.431110
vt 0.544768 0.420794
vt 0.708655 0.263976
vt 0.638824 0.318441
vt 0.333621 0.213648
vt 0.529518 0.018178
vt 0.161399 0.821183
vt 0.388269 0.664392
vt 0.734669 0.928057
vt 0.369781 0.603687
vt 0.693791 0.900471
vt 0.388269 0.560001
vt 0.661720 0.856452
vt 0.054633 0.575454
vt 0.818358 0.417924
vt 0.800499 0.559499
vt 0.541697 0.226894
vt 0.615083 0.297070
vt 0.053965 0.307423
vt 0.605866 0.203150
vt 0.010942 0.221391
vt 0.221755 0.082156
vt 0.167776 0.068251
vt 0.481785 0.397434
vt 0.579366 0.289769
vt 0.818358 0.267811
vt 0.781482 0.702868
vt 0.156148 0.230662
vt 0.067829 0.168036
vt 0.178771 0.374495
vt 0.091251 0.127448
vt 0.467842 0.469679
vt 0.415598 0.421364
vt 0.703055 0.089129
vt 0.822671 0.925611
vt 0.230327 0.576539
vt 0.233850 0.502740
vt 0.411385 0.255530
vt 0.788082 0.372037
vt 0.332815 0.601738
vt 0.182186 0.179916
vt 0.178411 0.225982
vt 0.263055 0.527421
vt 0.269169 0.591640
vt 0.331804 0.578782
vt 0.667069 0.961894
vt 0.256906 0.286744
vt 0.700912 0.816472
vt 0.694235 1.000000
vt 0.308505 0.634782
vt 0.683794 0.771298
vt 0.656914 0.618656
vt 0.332815 0.183597
vt 0.006984 0.659883
vt 0.369781 0.560000
vt 0.742828 0.427909
vt 0.073925 0.679877
vt 0.172234 0.300155
vt 0.265089 0.204007
vt 0.665725 0.570741
vt 0.281525 0.128153
vt 0.570152 0.168386
vt 0.134035 0.448233
vt 0.193538 0.430426
s 1
f 1/1/1 2/2/2 3/3/3
f 4/5/4 5/6/5 6/7/6
f 7/8/7 8/9/8 9/10/9
f 10/11/10 11/13/11 12/16/12
f 13/20/13 14/21/14 15/22/15
f 16/24/16 17/25/17 18/27/18
f 19/29/19 20/30/20 21/31/21
f 18/27/18 22/35/22 23/38/23
f 24/41/24 25/42/25 26/44/26
f 27/46/27 1/1/1 28/48/28
f 29/49/29 30/50/30 31/51/31
f 32/53/32 33/54/33 34/57/34
f 35/60/35 36/62/36 37/63/37
f 38/64/38 39/66/39 40/68/40
f 41/69/41 30/50/30 29/49/29
f 42/70/42 43/72/43 44/74/44
f 45/76/45 27/45/27 46/78/46
f 47/80/47 48/81/48 49/84/49
f 41/69/41 50/86/50 30/50/30
f 28/47/28 46/78/46 27/45/27
f 17/25/17 51/87/51 18/27/18
f 23/36/23 38/64/38 52/89/52
f 53/91/53 54/93/54 55/95/55
f 38/64/38 40/68/40 52/89/52
f 44/74/44 56/96/56 24/39/24
f 57/97/57 58/98/58 8/9/8
f 35/60/35 59/100/59 60/101/60
f 61/103/61 62/104/62 45/76/45
f 56/96/56 9/10/9 63/106/63
f 64/108/64 65/110/65 66/112/66
f 50/86/50 41/69/41 67/116/67
f 24/39/24 56/96/56 63/106/63
f 57/97/57 68/117/68 2/2/2
f 69/119/69 70/121/70 43/73/43
f 71/122/71 72/123/72 34/58/34
f 3/3/3 60/102/60 73/124/73
f 74/125/74 2/2/2 68/117/68
f 4/5/4 75/126/75 50/85/50
f 76/128/76 43/73/43 77/129/77
f 60/102/60 3/3/3 35/59/35
f 78/130/78 55/95/55 48/81/48
f 51/88/51 26/44/26 25/42/25
f 66/113/66 49/83/49 54/94/54
f 26/44/26 72/123/72 79/131/79
f 80/132/80 81/133/81 73/124/73
f 82/134/82 28/47/28 12/17/12
f 47/80/47 83/137/83 48/81/48
f 71/122/71 34/58/34 33/55/33
f 31/51/31 75/127/75 14/21/14
f 45/77/45 84/138/84 27/46/27
f 9/10/9 23/37/23 22/34/22
f 42/70/42 44/74/44 24/39/24
f 50/85/50 67/115/67 85/139/85
f 15/22/15 14/21/14 75/127/75
f 76/128/76 86/141/86 87/142/87
f 88/144/88 47/79/47 89/145/89
f 72/123/72 51/88/51 17/26/17
f 55/95/55 90/147/90 53/91/53
f 66/113/66 54/94/54 91/148/91
f 92/150/92 88/144/88 89/145/89
f 31/51/31 91/148/91 93/151/93
f 80/132/80 20/30/20 81/133/81
f 25/43/25 18/27/18 51/87/51
f 49/82/49 89/145/89 47/79/47
f 53/92/53 94/152/94 29/49/29
f 55/95/55 78/130/78 90/147/90
f 10/11/10 92/150/92 11/13/11
f 92/149/92 89/146/89 64/109/64
f 28/48/28 1/1/1 81/133/81
f 89/146/89 49/83/49 65/111/65
f 29/49/29 31/51/31 93/151/93
f 92/150/92 10/11/10 19/28/19
f 95/154/95 96/157/96 52/90/52
f 34/57/34 17/25/17 16/24/16
f 81/133/81 1/1/1 73/124/73
f 69/119/69 43/73/43 37/63/37
f 9/10/9 22/34/22 63/106/63
f 4/5/4 50/85/50 85/139/85
f 39/67/39 38/65/38 8/9/8
f 37/63/37 97/158/97 78/130/78
f 98/159/98 86/141/86 99/161/99
f 83/136/83 88/144/88 21/33/21
f 95/154/95 67/114/67 96/157/96
f 14/21/14 91/148/91 31/51/31
f 59/99/59 21/31/21 80/132/80
f 9/10/9 56/96/56 7/8/7
f 64/109/64 11/14/11 92/149/92
f 82/134/82 13/19/13 46/78/46
f 86/141/86 98/159/98 87/142/87
f 20/30/20 80/132/80 21/31/21
f 24/40/24 63/107/63 25/43/25
f 23/38/23 96/157/96 16/24/16
f 49/84/49 55/95/55 54/93/54
f 64/109/64 66/113/66 91/148/91
f 40/68/40 39/66/39 62/104/62
f 14/21/14 13/20/13 64/109/64
f 36/61/36 35/59/35 3/3/3
f 74/125/74 3/3/3 2/2/2
f 15/23/15 46/78/46 13/19/13
f 53/91/53 90/147/90 98/159/98
f 69/118/69 74/125/74 70/120/70
f 46/78/46 61/103/61 45/76/45
f 84/138/84 58/98/58 2/2/2
f 32/53/32 96/157/96 67/114/67
f 6/7/6 62/104/62 61/103/61
f 30/50/30 50/86/50 75/127/75
f 15/23/15 4/5/4 61/103/61
f 3/3/3 73/124/73 1/1/1
f 74/125/74 68/117/68 70/120/70
f 52/89/52 40/68/40 95/156/95
f 74/125/74 69/118/69 36/61/36
f 70/120/70 100/162/100 44/74/44
f 74/125/74 36/61/36 3/3/3
f 4/5/4 95/156/95 5/6/5
f 83/137/83 47/80/47 88/143/88
f 80/132/80 60/102/60 59/99/59
f 24/41/24 26/44/26 42/71/42
f 64/109/64 82/135/82 11/14/11
f 37/63/37 76/128/76 97/158/97
f 94/152/94 99/160/99 41/69/41
f 21/32/21 59/100/59 83/137/83
f 84/138/84 62/105/62 58/98/58
f 18/27/18 25/43/25 22/35/22
f 101/163/101 83/137/83 59/100/59
f 102/164/102 48/81/48 83/137/83
f 67/115/67 95/156/95 85/139/85
f 68/117/68 57/97/57 7/8/7
f 23/38/23 16/24/16 18/27/18
f 4/4/4 85/140/85 95/155/95
f 41/69/41 33/56/33 67/116/67
f 80/132/80 73/124/73 60/102/60
f 39/67/39 58/98/58 62/105/62
f 33/55/33 99/161/99 71/122/71
f 84/138/84 2/2/2 1/1/1
f 37/63/37 43/73/43 76/128/76
f 62/104/62 6/7/6 5/6/5
f 28/47/28 82/134/82 46/78/46
f 70/120/70 68/117/68 100/162/100
f 86/141/86 79/131/79 72/123/72
f 38/65/38 9/10/9 8/9/8
f 62/104/62 5/6/5 40/68/40
f 91/148/91 54/94/54 93/151/93
f 78/130/78 102/164/102 101/163/101
f 38/65/38 23/37/23 9/10/9
f 75/126/75 4/5/4 15/23/15
f 98/159/98 94/153/94 53/91/53
f 100/162/100 56/96/56 44/74/44
f 32/53/32 34/57/34 16/24/16
f 82/134/82 12/17/12 11/15/11
f 64/109/64 89/146/89 65/111/65
f 20/30/20 10/12/10 12/18/12
f 64/109/64 91/148/91 14/21/14
f 43/73/43 42/71/42 77/129/77
f 81/133/81 20/30/20 12/18/12
f 25/43/25 63/107/63 22/35/22
f 88/144/88 92/150/92 19/28/19
f 61/103/61 46/78/46 15/23/15
f 51/88/51 72/123/72 26/44/26
f 101/163/101 35/60/35 37/63/37
f 41/69/41 99/160/99 33/56/33
f 66/113/66 65/111/65 49/83/49
f 84/138/84 1/1/1 27/46/27
f 21/33/21 88/144/88 19/28/19
f 41/69/41 29/49/29 94/152/94
f 79/131/79 77/129/77 42/71/42
f 32/52/32 67/116/67 33/56/33
f 23/38/23 52/90/52 96/157/96
f 79/131/79 76/128/76 77/129/77
f 20/30/20 19/29/19 10/12/10
f 87/142/87 98/159/98 90/147/90
f 56/96/56 100/162/100 7/8/7
f 78/130/78 97/158/97 90/147/90
f 57/97/57 8/9/8 7/8/7
f 87/142/87 90/147/90 97/158/97
f 62/105/62 84/138/84 45/77/45
f 2/2/2 58/98/58 57/97/57
f 71/122/71 99/161/99 86/141/86
f 64/109/64 13/20/13 82/135/82
f 53/92/53 29/49/29 93/151/93
f 61/103/61 4/5/4 6/7/6
f 16/24/16 96/157/96 32/53/32
f 72/123/72 71/122/71 86/141/86
f 40/68/40 5/6/5 95/156/95
f 35/60/35 101/163/101 59/100/59
f 31/51/31 30/50/30 75/127/75
f 101/163/101 102/164/102 83/137/83
f 70/121/70 44/75/44 43/73/43
f 99/161/99 94/153/94 98/159/98
f 86/141/86 76/128/76 79/131/79
f 78/130/78 101/163/101 37/63/37
f 81/133/81 12/18/12 28/48/28
f 8/9/8 58/98/58 39/67/39
f 72/123/72 17/26/17 34/58/34
f 68/117/68 7/8/7 100/162/100
f 93/151/93 54/94/54 53/92/53
f 97/158/97 76/128/76 87/142/87
f 55/95/55 49/84/49 48/81/48
f 37/63/37 36/62/36 69/119/69
f 42/71/42 26/44/26 79/131/79
f 48/81/48 102/164/102 78/130/78
