# Blender 3.1.2
# www.blender.org
o RockyRock_
v 0.319442 -1.575595 5.830656
v 1.216442 -1.435034 5.634442
v 1.206447 -1.092251 6.092399
v -0.771808 -1.644968 5.864297
v -2.594316 -1.570102 7.636573
v -2.576561 -1.539273 5.876140
v -4.557366 0.572578 6.696676
v -5.307620 1.029090 4.369211
v -4.339478 0.087737 5.697680
v -1.279281 0.406371 5.553840
v -0.689494 0.406193 4.928100
v -1.355727 0.734631 5.436070
v 0.962475 -0.581035 3.874333
v 1.540492 -1.048137 3.873149
v 1.528783 -1.332657 2.910791
v 0.522894 -0.479972 5.458971
v 1.017999 -0.711598 5.305842
v -3.945421 -0.773191 2.676688
v -2.603730 -1.560685 2.414068
v -3.201413 -1.469438 4.274995
v -2.223968 0.837389 7.811329
v -2.903991 -0.832727 7.574636
v -1.654781 0.227613 7.529118
v -4.177845 0.011116 3.283443
v -4.852494 0.479081 3.948517
v -4.041830 0.802026 3.629803
v 1.463202 -0.787320 2.705230
v -4.205072 1.580728 5.971909
v -4.134728 1.919664 5.300640
v -5.649720 1.990105 4.854918
v 0.997403 -1.601720 7.793057
v -0.094457 -0.937299 7.863883
v -0.273289 -1.320661 6.675801
v -0.809089 0.085644 7.646383
v 0.875050 -1.597927 6.355985
v -1.242817 -1.565562 7.642638
v -4.620553 1.137652 4.025780
v -1.440310 -0.632627 3.032534
v -0.475814 -1.357110 2.263643
v -1.523168 -0.766156 2.397399
v -2.744892 0.390943 3.550052
v -3.657552 -0.343683 2.569453
v 0.110071 -0.313638 3.613980
v -0.553256 -0.329825 2.994827
v -0.995281 0.722458 4.484702
v -3.630947 0.704626 7.794224
v -3.666790 0.324736 7.406466
v -0.595374 -1.667112 2.689962
v 0.055195 -1.433555 3.587255
v 0.861590 -1.007356 7.801969
v 0.025811 -0.351862 6.554064
v 0.256974 -0.218083 3.338432
v 0.032250 -0.897589 2.360908
v 1.070972 -1.138898 2.464805
v -2.796926 1.196353 6.942506
v -3.393453 -0.628729 7.452133
v -3.500175 -0.673300 5.122643
v -2.110628 -1.530976 2.003300
v 0.984582 -1.507876 3.820288
v -4.541451 1.428405 7.517626
v -4.617782 1.550795 6.611725
v -0.295046 -1.623183 4.700621
v -3.355248 1.610012 6.729552
v -2.375181 -0.734118 2.527679
v -3.331426 -1.598996 1.858593
v -1.063601 -1.414437 4.696535
v -3.510026 0.852621 4.482873
v -2.586069 0.313123 3.973159
v -2.767928 1.404082 7.649633
v -2.838653 1.575222 5.618937
v -3.646292 1.765429 5.499444
v -1.817834 -1.611103 4.321153
v -1.962276 1.058399 4.629303
v -3.812135 -0.456847 4.532985
v -2.083777 0.136858 3.387997
v -3.554482 -0.828958 5.588611
v -1.914780 -1.763379 2.750072
vn 0.1417 -0.9885 0.0524
vn 0.8153 -0.5486 0.1855
vn 0.9798 0.1743 0.0981
vn 0.0192 -0.9994 0.0299
vn -0.2897 -0.5656 0.7721
vn -0.3993 -0.9168 0.0092
vn -0.8455 -0.4463 0.2931
vn -0.8859 -0.3125 -0.3429
vn -0.6830 -0.7215 0.1143
vn 0.5441 0.7884 0.2869
vn 0.5907 0.7774 0.2163
vn 0.6205 0.7631 0.1807
vn 0.5369 0.8372 0.1042
vn 0.9921 0.1062 0.0664
vn 0.8216 -0.4832 -0.3024
vn 0.4945 0.8628 0.1049
vn 0.7394 0.6641 0.1105
vn -0.8198 -0.4108 -0.3989
vn -0.2474 -0.9678 0.0456
vn -0.5683 -0.8170 0.0979
vn 0.4555 0.3231 0.8295
vn -0.4279 -0.4298 0.7951
vn 0.2658 0.4186 0.8684
vn -0.6810 0.4050 -0.6100
vn -0.7649 -0.1486 -0.6267
vn -0.0332 0.8198 -0.5717
vn 0.6212 0.5951 -0.5099
vn 0.0225 0.9946 0.1011
vn 0.4640 0.8740 -0.1446
vn -0.6118 0.7902 -0.0360
vn 0.4012 -0.7569 0.5158
vn -0.1653 0.0102 0.9862
vn -0.0030 -0.9770 0.2134
vn 0.3564 0.5044 0.7865
vn 0.2756 -0.9509 -0.1411
vn 0.3090 -0.6457 0.6982
vn 0.0164 0.4673 -0.8839
vn 0.1451 0.6522 -0.7440
vn 0.0779 -0.4089 -0.9093
vn 0.0951 0.5474 -0.8315
vn 0.1199 0.9459 -0.3015
vn -0.1074 0.5720 -0.8132
vn 0.3534 0.9351 0.0275
vn 0.1443 0.6831 -0.7160
vn 0.2638 0.9367 -0.2304
vn -0.1937 -0.2180 0.9565
vn -0.4222 -0.3656 0.8295
vn 0.1970 -0.9294 -0.3121
vn 0.1159 -0.9882 -0.1003
vn 0.5445 0.6388 0.5436
vn 0.4142 0.8568 0.3072
vn 0.0263 0.9458 -0.3236
vn -0.0588 0.5794 -0.8130
vn 0.3301 -0.1566 -0.9309
vn 0.4623 0.8743 0.1478
vn -0.6161 -0.5158 0.5953
vn -0.7237 -0.6886 0.0461
vn 0.0926 -0.4694 -0.8781
vn 0.2354 -0.9719 -0.0090
vn -0.6984 0.0416 0.7145
vn -0.3411 0.8825 0.3238
vn -0.0539 -0.9920 -0.1145
vn 0.2603 0.8914 0.3709
vn 0.0016 0.6252 -0.7805
vn -0.2609 -0.4450 -0.8567
vn -0.0131 -0.9998 -0.0154
vn 0.1774 0.8043 -0.5671
vn 0.1082 0.8276 -0.5508
vn 0.2435 0.8659 0.4370
vn 0.3765 0.9264 -0.0000
vn -0.0884 0.9536 -0.2877
vn -0.0168 -0.9961 0.0872
vn 0.3545 0.7504 -0.5579
vn -0.7692 -0.6333 0.0858
vn -0.2959 0.5465 -0.7835
vn -0.6621 -0.7491 -0.0223
vn -0.0916 -0.9914 -0.0939
vt 0.078004 0.172236
vt 0.294044 0.878659
vt 0.568154 0.852119
vt 0.008362 0.196600
vt 0.537851 0.822547
vt 0.005816 0.160225
vt 0.709064 0.822547
vt 0.791183 0.156749
vt 0.294044 0.962413
vt 0.164933 0.159160
vt 0.805680 0.217077
vt 0.294539 0.000000
vt 0.428415 0.620549
vt 0.472018 0.527187
vt 0.309723 0.141321
vt 0.267296 0.977421
vt 0.791183 0.356853
vt 0.250726 0.456168
vt 0.694700 0.545217
vt 0.686848 0.745109
vt 0.000000 0.815430
vt 0.628705 0.607013
vt 0.951477 0.248861
vt 0.572631 0.172410
vt 0.952815 0.704854
vt 0.901716 0.704854
vt 0.979571 0.192870
vt 0.709064 0.957566
vt 0.612015 0.229439
vt 0.978193 0.259601
vt 0.000000 0.456168
vt 0.561832 0.181455
vt 0.958501 0.629163
vt 0.092282 0.970111
vt 0.740628 0.331702
vt 0.791183 0.337944
vt 0.568154 1.000000
vt 0.000000 0.341324
vt 0.781893 0.414110
vt 0.045696 0.871876
vt 0.611373 0.822548
vt 0.009180 0.417999
vt 0.723345 0.200131
vt 0.512071 0.887107
vt 0.763139 0.217907
vt 0.841274 0.441596
vt 0.451557 0.385832
vt 0.479543 0.811157
vt 0.344331 0.418553
vt 0.375010 0.263860
vt 0.451557 0.661807
vt 0.981898 0.824234
vt 0.777349 0.858845
vt 0.891005 0.441596
vt 0.235368 0.653798
vt 0.932662 0.689524
vt 0.952815 0.905201
vt 0.449795 0.933756
vt 0.869178 0.229710
vt 0.368623 0.595737
vt 0.567868 0.009954
vt 0.901716 0.859332
vt 0.283276 0.696338
vt 0.512071 0.964654
vt 0.557623 0.785442
vt 0.818828 0.217077
vt 0.465457 0.987855
vt 0.009664 0.866298
vt 0.625062 0.757256
vt 0.952539 0.178682
vt 0.451557 0.933216
vt 0.993065 0.124801
vt 0.092282 0.866298
vt 0.568154 0.833232
vt 0.768702 0.430665
vt 0.660565 0.822548
vt 0.087651 0.679883
vt 0.133636 0.649166
vt 0.611373 0.858556
vt 0.130121 0.771768
vt 0.227565 0.734862
vt 0.777350 0.734225
vt 0.008479 0.734862
vt 0.127556 0.967871
vt 0.660565 0.958327
vt 0.005192 0.021294
vt 0.093858 0.006149
vt 0.127556 0.866298
vt 0.707314 0.000000
vt 0.118273 0.099218
vt 0.637681 0.010525
vt 0.342197 0.765121
vt 0.295494 0.765121
vt 0.267296 0.929328
vt 0.028493 0.135339
vt 0.620202 0.002757
vt 0.342197 0.878659
vt 0.186204 0.012267
vt 0.428415 0.728980
vt 0.235368 0.623661
vt 0.041613 0.819643
vt 0.204990 0.734862
vt 0.444212 0.718584
vt 0.000000 0.925708
vt 0.883479 0.000000
vt 0.951477 0.301452
vt 0.883478 0.089250
vt 0.448956 0.456168
vt 0.936139 0.000000
vt 0.615783 0.441596
vt 0.611373 0.992242
vt 0.878345 0.335362
vt 0.175806 0.450936
vt 0.260112 0.431075
vt 0.878345 0.611230
vt 0.934516 0.090218
vt 0.130121 0.828697
vt 0.822044 0.104340
vt 0.204990 0.916801
vt 0.878345 0.451365
vt 0.936139 0.265890
vt 0.500928 0.822548
vt 0.883479 0.184323
vt 0.730332 0.822548
vt 0.667321 0.342685
vt 0.428415 0.649501
vt 0.045696 0.977789
vt 0.607692 0.384087
vt 0.754155 0.957566
vt 0.579358 0.261690
vt 0.952815 0.714862
vt 0.709584 0.447167
vt 0.878345 0.554438
vt 0.981898 0.704854
vt 0.673006 0.469545
vt 0.274356 0.533947
vt 0.826489 0.704854
vt 0.180525 0.415247
vt 0.120625 0.349750
vt 0.092282 0.933884
vt 0.709064 0.962907
vt 0.783032 0.016321
vt 0.235368 0.803722
vt 0.695493 0.106982
vt 0.444212 0.580635
vt 0.951477 0.441596
vt 0.674749 0.366606
vt 0.575132 0.950932
vt 0.652456 0.440739
vt 0.596582 0.870033
vt 0.050586 0.449674
vt 0.878345 0.639690
vt 0.358728 0.916035
vt 0.229431 0.886761
vt 0.863111 0.870293
vt 0.598286 0.441596
vt 0.351471 0.555520
vt 0.414930 0.911623
vt 0.538262 0.619322
vt 0.267296 0.878659
vt 0.804364 0.572145
vt 0.308758 0.456168
vt 0.043763 0.339743
vt 0.936628 0.630677
vt 0.777350 0.500016
vt 0.414930 0.777587
vt 0.060430 0.734862
vt 0.765000 0.572621
vt 0.342197 0.765121
vt 0.229431 0.734862
vt 0.137713 0.256963
vt 0.979571 0.441596
vt 0.000547 0.653595
vt 0.204990 0.834353
vt 0.901716 0.905323
vt 0.868374 0.551778
vt 0.929663 0.159459
vt 0.777350 0.479998
vt 0.407745 0.456168
vt 0.199912 0.250303
vt 0.990165 0.441596
vt 0.660565 0.967630
vt 0.130121 0.865311
vt 0.155700 0.564736
vt 0.936139 0.068095
vt 0.993065 0.000000
vt 0.451557 0.282669
vt 0.512071 0.822548
vt 0.791183 0.084165
vt 0.936628 0.489797
vt 0.448956 0.580635
vt 0.936628 0.487231
vt 0.932662 0.630677
vt 0.414930 0.920264
vt 0.055381 0.571280
vt 0.098522 0.622960
vt 0.263323 0.273033
vt 0.083202 0.466096
vt 0.990165 0.563004
vt 0.546572 0.674311
vt 0.045696 0.866298
vt 0.486290 0.335104
vt 0.428415 0.534174
vt 0.540179 0.581867
vt 0.449795 0.765121
vt 0.235368 0.899379
vt 0.869178 0.396256
vt 0.285413 0.397864
s 1
f 1/1/1 2/4/2 3/6/3
f 4/10/4 5/12/5 6/15/6
f 7/19/7 8/20/8 9/22/9
f 10/23/10 11/27/11 12/30/12
f 13/35/13 14/36/14 15/39/15
f 16/43/16 3/8/3 17/45/17
f 18/47/18 19/49/19 20/50/20
f 21/55/21 22/60/22 23/63/23
f 17/44/17 3/5/3 2/3/2
f 24/64/24 25/67/25 26/71/26
f 13/34/13 15/40/15 27/73/27
f 28/77/28 29/78/29 30/81/30
f 31/86/31 32/87/32 33/90/33
f 23/61/23 34/91/34 10/24/10
f 33/90/33 1/1/1 35/95/35
f 32/87/32 36/98/36 33/90/33
f 37/100/37 30/81/30 29/78/29
f 38/107/38 39/109/39 40/116/40
f 41/117/41 38/102/38 42/119/42
f 43/125/43 44/128/44 45/130/45
f 31/86/31 35/95/35 3/6/3
f 21/52/21 46/131/46 47/134/47
f 48/138/48 39/113/39 49/139/49
f 50/140/50 32/88/32 31/84/31
f 51/144/51 36/96/36 32/89/32
f 52/147/52 53/149/53 39/110/39
f 13/35/13 17/45/17 14/36/14
f 27/74/27 54/150/54 53/148/53
f 10/26/10 55/155/55 21/53/21
f 47/136/47 7/18/7 56/157/56
f 10/24/10 51/144/51 11/29/11
f 54/150/54 27/74/27 15/41/15
f 20/51/20 6/14/6 57/159/57
f 40/115/40 48/137/48 58/161/58
f 59/163/59 1/1/1 49/139/49
f 7/19/7 60/165/60 61/168/61
f 4/10/4 62/171/62 1/1/1
f 61/167/61 63/173/63 28/77/28
f 18/46/18 64/176/64 65/178/65
f 50/141/50 31/85/31 3/7/3
f 48/138/48 49/139/49 66/180/66
f 1/1/1 33/90/33 4/10/4
f 36/98/36 4/10/4 33/90/33
f 11/28/11 43/124/43 45/129/45
f 25/68/25 8/21/8 37/101/37
f 25/68/25 37/101/37 67/183/67
f 47/135/47 46/132/46 60/165/60
f 52/147/52 43/125/43 13/35/13
f 67/185/67 68/186/68 26/72/26
f 69/192/69 46/133/46 21/54/21
f 52/145/52 38/103/38 44/126/44
f 63/173/63 70/195/70 71/196/71
f 66/180/66 6/15/6 72/197/72
f 27/75/27 52/147/52 13/35/13
f 64/176/64 18/46/18 42/120/42
f 53/148/53 54/150/54 39/111/39
f 70/195/70 73/198/73 71/196/71
f 22/60/22 21/55/21 47/136/47
f 7/19/7 30/82/30 8/20/8
f 8/20/8 25/69/25 9/22/9
f 25/69/25 74/200/74 9/22/9
f 46/133/46 69/192/69 60/164/60
f 43/125/43 16/43/16 13/35/13
f 51/144/51 16/43/16 11/29/11
f 11/29/11 16/43/16 43/125/43
f 12/30/12 63/172/63 10/23/10
f 3/8/3 51/144/51 50/142/50
f 34/91/34 51/144/51 10/24/10
f 71/196/71 73/198/73 67/184/67
f 68/190/68 67/181/67 73/199/73
f 45/130/45 75/202/75 68/187/68
f 68/187/68 12/32/12 45/130/45
f 21/56/21 55/152/55 69/193/69
f 51/143/51 34/92/34 36/97/36
f 39/113/39 48/138/48 40/114/40
f 51/144/51 32/89/32 50/142/50
f 17/44/17 2/3/2 14/37/14
f 75/201/75 44/127/44 38/104/38
f 74/200/74 24/65/24 18/48/18
f 30/81/30 61/167/61 28/77/28
f 72/197/72 6/15/6 20/50/20
f 76/204/76 7/19/7 57/159/57
f 56/156/56 7/19/7 76/204/76
f 60/165/60 7/19/7 47/135/47
f 6/17/6 5/11/5 22/59/22
f 39/113/39 59/163/59 49/139/49
f 59/163/59 39/113/39 15/42/15
f 22/60/22 47/136/47 56/157/56
f 59/163/59 2/4/2 1/1/1
f 49/139/49 62/171/62 66/180/66
f 61/169/61 69/194/69 55/153/55
f 6/15/6 66/180/66 4/10/4
f 65/178/65 64/176/64 58/161/58
f 40/115/40 58/161/58 64/176/64
f 58/162/58 19/49/19 65/179/65
f 48/138/48 77/208/77 58/162/58
f 77/208/77 19/49/19 58/162/58
f 74/200/74 25/69/25 24/65/24
f 28/76/28 67/182/67 29/79/29
f 19/49/19 18/47/18 65/179/65
f 7/19/7 61/168/61 30/82/30
f 29/80/29 67/183/67 37/101/37
f 42/121/42 38/107/38 64/177/64
f 68/188/68 24/64/24 26/71/26
f 24/66/24 68/189/68 41/118/41
f 7/19/7 9/22/9 57/159/57
f 9/22/9 74/200/74 57/159/57
f 74/200/74 20/51/20 57/159/57
f 23/62/23 10/25/10 21/57/21
f 41/118/41 68/189/68 38/105/38
f 52/147/52 44/128/44 43/125/43
f 73/198/73 70/195/70 12/31/12
f 12/31/12 70/195/70 63/173/63
f 18/48/18 24/65/24 42/122/42
f 11/29/11 45/130/45 12/32/12
f 63/173/63 71/196/71 28/77/28
f 1/1/1 62/171/62 49/139/49
f 56/158/56 76/205/76 22/58/22
f 76/206/76 57/160/57 6/16/6
f 6/17/6 22/59/22 76/207/76
f 39/112/39 38/106/38 52/146/52
f 13/35/13 16/43/16 17/45/17
f 69/194/69 61/169/61 60/166/60
f 59/163/59 15/42/15 14/38/14
f 2/4/2 59/163/59 14/38/14
f 27/75/27 53/149/53 52/147/52
f 16/43/16 51/144/51 3/8/3
f 12/33/12 68/190/68 73/199/73
f 41/118/41 42/123/42 24/66/24
f 23/63/23 22/60/22 5/13/5
f 5/13/5 34/93/34 23/63/23
f 71/196/71 67/184/67 28/77/28
f 72/197/72 19/49/19 77/208/77
f 48/138/48 66/180/66 72/197/72
f 77/208/77 48/138/48 72/197/72
f 39/113/39 54/151/54 15/42/15
f 30/83/30 37/101/37 8/21/8
f 1/2/1 3/9/3 35/94/35
f 5/12/5 4/10/4 36/98/36
f 33/90/33 35/95/35 31/86/31
f 62/171/62 4/10/4 66/180/66
f 44/128/44 75/202/75 45/130/45
f 72/197/72 20/50/20 19/49/19
f 61/170/61 55/154/55 63/174/63
f 63/175/63 55/155/55 10/26/10
f 26/72/26 25/70/25 67/185/67
f 40/116/40 64/177/64 38/107/38
f 38/108/38 68/191/68 75/203/75
f 5/13/5 36/99/36 34/93/34
f 20/51/20 74/200/74 18/48/18
